PathFileType	4	(X/Y/Z)	C:\Users\italobelli\Desktop\GitHub\PTbot_officialCBL\Personal_Results\SHRUG01_noisy2.trc
DataRate	CameraRate	NumFrames	NumMarkers	Units	OrigDataRate	OrigDataStartFrame	OrigNumFrames
110.888889	110.888889	16	9	m	110.888889	251	500
Frame#	Time		gu		centelbow		EpL		centpxt8		centijc7		ij		ts		aa		ai
			X1	Y1	Z1	X2	Y2	Z2	X3	Y3	Z3	X4	Y4	Z4	X5	Y5	Z5	X6	Y6	Z6	X7	Y7	Z7	X8	Y8	Z8	X9	Y9	Z9

251	2.2545	-0.076465	0.00601	0.1677	-0.091097	-0.2389	0.2025	-0.067878	-0.23247	0.22371	-0.046816	-0.15316	-0.008669	-0.046816	0.031938	-0.008669	0	0	0	-0.13758	0.040472	0.052212	-0.10221	0.046319	0.16587	-0.16146	-0.068577	0.071993
252	2.2635	-0.07665	0.0049122	0.16776	-0.091477	-0.24019	0.20224	-0.068213	-0.23382	0.22342	-0.046816	-0.15316	-0.008669	-0.046816	0.031938	-0.008669	0	0	0	-0.13773	0.039889	0.052523	-0.10243	0.045202	0.16623	-0.16159	-0.069264	0.071744
253	2.2725	-0.076831	0.0038277	0.16782	-0.091854	-0.24146	0.20199	-0.068545	-0.23516	0.22314	-0.046816	-0.15316	-0.008669	-0.046816	0.031938	-0.008669	0	0	0	-0.13789	0.03931	0.052832	-0.10264	0.044098	0.16658	-0.16171	-0.069945	0.071498
254	2.2816	-0.077011	0.0027586	0.16787	-0.092227	-0.24272	0.20174	-0.068874	-0.23647	0.22286	-0.046816	-0.15316	-0.008669	-0.046816	0.031938	-0.008669	0	0	0	-0.13804	0.038738	0.053139	-0.10286	0.043009	0.16692	-0.16184	-0.070617	0.071254
255	2.2906	-0.077187	0.0017068	0.16793	-0.092596	-0.24395	0.20149	-0.0692	-0.23776	0.22258	-0.046816	-0.15316	-0.008669	-0.046816	0.031938	-0.008669	0	0	0	-0.13819	0.038173	0.053442	-0.10307	0.041936	0.16726	-0.16196	-0.07128	0.071014
256	2.2996	-0.07736	0.00067436	0.16798	-0.092961	-0.24516	0.20125	-0.069523	-0.23903	0.22231	-0.046816	-0.15316	-0.008669	-0.046816	0.031938	-0.008669	0	0	0	-0.13833	0.037616	0.053741	-0.10327	0.040882	0.1676	-0.16208	-0.071932	0.070776
257	2.3086	-0.07753	-0.00033673	0.16803	-0.093322	-0.24634	0.20101	-0.069843	-0.24027	0.22204	-0.046816	-0.15316	-0.008669	-0.046816	0.031938	-0.008669	0	0	0	-0.13847	0.03707	0.054036	-0.10347	0.039848	0.16792	-0.16219	-0.072571	0.070541
258	2.3176	-0.077696	-0.0013244	0.16807	-0.093677	-0.24749	0.20078	-0.070159	-0.24148	0.22178	-0.046816	-0.15316	-0.008669	-0.046816	0.031938	-0.008669	0	0	0	-0.13861	0.036535	0.054324	-0.10367	0.038837	0.16824	-0.1623	-0.073196	0.07031
259	2.3267	-0.077859	-0.0022868	0.16812	-0.094028	-0.24861	0.20055	-0.070471	-0.24265	0.22153	-0.046816	-0.15316	-0.008669	-0.046816	0.031938	-0.008669	0	0	0	-0.13875	0.036012	0.054607	-0.10386	0.037852	0.16855	-0.16241	-0.073806	0.070082
260	2.3357	-0.078017	-0.0032218	0.16816	-0.094374	-0.2497	0.20033	-0.070779	-0.2438	0.22128	-0.046816	-0.15316	-0.008669	-0.046816	0.031938	-0.008669	0	0	0	-0.13888	0.035503	0.054881	-0.10405	0.036893	0.16886	-0.16252	-0.074399	0.069858
261	2.3447	-0.078171	-0.0041274	0.1682	-0.094714	-0.25075	0.20011	-0.071083	-0.2449	0.22104	-0.046816	-0.15316	-0.008669	-0.046816	0.031938	-0.008669	0	0	0	-0.13901	0.035008	0.055148	-0.10423	0.035963	0.16915	-0.16262	-0.074974	0.069638
262	2.3537	-0.078321	-0.0050016	0.16824	-0.095049	-0.25176	0.19989	-0.071383	-0.24596	0.22081	-0.046816	-0.15316	-0.008669	-0.046816	0.031938	-0.008669	0	0	0	-0.13913	0.03453	0.055406	-0.10441	0.035064	0.16943	-0.16271	-0.07553	0.069421
263	2.3627	-0.078466	-0.0058423	0.16827	-0.095377	-0.25273	0.19968	-0.071678	-0.24698	0.22058	-0.046816	-0.15316	-0.008669	-0.046816	0.031938	-0.008669	0	0	0	-0.13925	0.03407	0.055655	-0.10458	0.034198	0.1697	-0.1628	-0.076065	0.069209
264	2.3717	-0.078606	-0.0066477	0.1683	-0.095699	-0.25365	0.19948	-0.071969	-0.24796	0.22036	-0.046816	-0.15316	-0.008669	-0.046816	0.031938	-0.008669	0	0	0	-0.13936	0.033627	0.055893	-0.10474	0.033367	0.16996	-0.16289	-0.076578	0.069001
265	2.3808	-0.078741	-0.0074157	0.16833	-0.096015	-0.25453	0.19928	-0.072256	-0.24889	0.22015	-0.046816	-0.15316	-0.008669	-0.046816	0.031938	-0.008669	0	0	0	-0.13947	0.033205	0.056119	-0.1049	0.032573	0.17021	-0.16297	-0.077067	0.068798
266	2.3898	-0.07887	-0.0081443	0.16836	-0.096325	-0.25537	0.19909	-0.072537	-0.24976	0.21995	-0.046816	-0.15316	-0.008669	-0.046816	0.031938	-0.008669	0	0	0	-0.13957	0.032804	0.056334	-0.10506	0.031819	0.17045	-0.16305	-0.077532	0.0686
